<?xml version="1.0" encoding="UTF-8" standalone="no"?>
<svg width="535px" height="533px" viewBox="0 0 535 533" version="1.1" xmlns="http://www.w3.org/2000/svg" xmlns:xlink="http://www.w3.org/1999/xlink">
    <!-- Generator: Sketch Beta 3.8.3 (29801) - http://www.bohemiancoding.com/sketch -->
    <title>Emblem 2</title>
    <desc>Created with Sketch Beta.</desc>
    <defs></defs>
    <g id="Page-1" stroke="none" stroke-width="1" fill="none" fill-rule="evenodd">
        <g id="Emblem-Copy-16" transform="translate(18.000000, 17.000000)">
            <g id="Element" transform="translate(250.000000, 392.388724) scale(1, -1) translate(-250.000000, -392.388724) translate(79.881657, 285.777448)" stroke="#0F7A9D">
                <g id="Left-Leg" transform="translate(98.906442, 115.678730) rotate(4.000000) translate(-98.906442, -115.678730) translate(23.462655, 24.614932)" stroke-width="59.1715976" stroke-linecap="round">
                    <path d="M15.79644,11.832994 L135.091134,170.294602" id="Line" transform="translate(75.443787, 91.063798) rotate(-12.000000) translate(-75.443787, -91.063798) "></path>
                </g>
                <g id="Right-Leg" transform="translate(218.625251, 128.224054) rotate(-4.000000) translate(-218.625251, -128.224054) translate(121.731760, 51.227022)">
                    <path d="M43.7360087,130.977809 L193.338204,0.805574136" id="Line-Copy-2" stroke-width="59.1715976" stroke-linecap="round"></path>
                    <ellipse id="Oval-1" stroke-width="1.47928994" fill="#0F7A9D" transform="translate(43.736009, 109.352540) rotate(4.000000) translate(-43.736009, -109.352540) " cx="43.7360087" cy="109.35254" rx="40.6804734" ry="40.7195846"></ellipse>
                </g>
                <path d="M25.3669806,67.4388226 C40.4812822,67.4388226 54.7337278,61.9729827 54.7337278,41.7417569 L54.7337278,0.61582125 C54.7337278,0.61582125 27.0059536,7.6971621 12.3109662,20.0817277 C4.70208777,26.4942991 0,34.8399517 0,41.7417569 C0,61.9729827 10.2526791,67.4388226 25.3669806,67.4388226 Z" id="Oval-16-Copy-2" stroke-width="1.47928994" fill="#0F7A9D"></path>
                <path d="M309.429916,67.4388226 C324.544218,67.4388226 338.796664,61.9729827 338.796664,41.7417569 L338.796664,0.61582125 C338.796664,0.61582125 311.068889,7.6971621 296.373902,20.0817277 C288.765024,26.4942991 284.062936,34.8399517 284.062936,41.7417569 C284.062936,61.9729827 294.315615,67.4388226 309.429916,67.4388226 Z" id="Oval-16-Copy-3" stroke-width="1.47928994" fill="#0F7A9D" transform="translate(311.429800, 34.027322) scale(-1, 1) translate(-311.429800, -34.027322) "></path>
            </g>
            <g id="Element-Copy-8" transform="translate(106.508876, 246.538576) scale(1, -1) rotate(-90.000000) translate(-106.508876, -246.538576) translate(-64.349112, 139.927300)" stroke="#1CD4E1">
                <g id="Left-Leg" transform="translate(100.385732, 115.678730) rotate(4.000000) translate(-100.385732, -115.678730) translate(24.941945, 24.614932)" stroke-width="59.1715976" stroke-linecap="round">
                    <path d="M15.79644,11.832994 L135.091134,170.294602" id="Line" transform="translate(75.443787, 91.063798) rotate(-12.000000) translate(-75.443787, -91.063798) "></path>
                </g>
                <g id="Right-Leg" transform="translate(220.104541, 128.224054) rotate(-4.000000) translate(-220.104541, -128.224054) translate(123.211050, 51.227022)">
                    <path d="M43.7360087,130.977809 L193.338204,0.805574136" id="Line-Copy-2" stroke-width="59.1715976" stroke-linecap="round"></path>
                    <ellipse id="Oval-1" stroke-width="1.47928994" fill="#1CD4E1" transform="translate(43.736009, 109.352540) rotate(4.000000) translate(-43.736009, -109.352540) " cx="43.7360087" cy="109.35254" rx="40.6804734" ry="40.7195846"></ellipse>
                </g>
                <path d="M26.8462706,67.4388226 C41.9605722,67.4388226 56.2130178,61.9729827 56.2130178,41.7417569 L56.2130178,0.61582125 C56.2130178,0.61582125 28.4852436,7.6971621 13.7902562,20.0817277 C6.18137771,26.4942991 1.47928994,34.8399517 1.47928994,41.7417569 C1.47928994,61.9729827 11.731969,67.4388226 26.8462706,67.4388226 Z" id="Oval-16-Copy-2" stroke-width="1.47928994" fill="#1CD4E1"></path>
                <path d="M310.909206,67.4388226 C326.023508,67.4388226 340.275954,61.9729827 340.275954,41.7417569 L340.275954,0.61582125 C340.275954,0.61582125 312.548179,7.6971621 297.853192,20.0817277 C290.244314,26.4942991 285.542226,34.8399517 285.542226,41.7417569 C285.542226,61.9729827 295.794905,67.4388226 310.909206,67.4388226 Z" id="Oval-16-Copy-3" stroke-width="1.47928994" fill="#1CD4E1" transform="translate(312.909090, 34.027322) scale(-1, 1) translate(-312.909090, -34.027322) "></path>
            </g>
            <g id="Element-Copy-9" transform="translate(392.751479, 247.278932) scale(-1, -1) rotate(-90.000000) translate(-392.751479, -247.278932) translate(221.893491, 140.667656)" stroke="#1CD4E1">
                <g id="Left-Leg" transform="translate(100.385732, 115.678730) rotate(4.000000) translate(-100.385732, -115.678730) translate(24.941945, 24.614932)" stroke-width="59.1715976" stroke-linecap="round">
                    <path d="M15.79644,11.832994 L135.091134,170.294602" id="Line" transform="translate(75.443787, 91.063798) rotate(-12.000000) translate(-75.443787, -91.063798) "></path>
                </g>
                <g id="Right-Leg" transform="translate(220.104541, 128.224054) rotate(-4.000000) translate(-220.104541, -128.224054) translate(123.211050, 51.227022)" fill="#1CD4E1">
                    <path d="M43.7360087,130.977809 L193.338204,0.805574136" id="Line-Copy-2" stroke-width="59.1715976" stroke-linecap="round"></path>
                    <ellipse id="Oval-1" stroke-width="1.47928994" transform="translate(43.736009, 109.352540) rotate(4.000000) translate(-43.736009, -109.352540) " cx="43.7360087" cy="109.35254" rx="40.6804734" ry="40.7195846"></ellipse>
                </g>
                <path d="M26.8462706,67.4388226 C41.9605722,67.4388226 56.2130178,61.9729827 56.2130178,41.7417569 L56.2130178,0.61582125 C56.2130178,0.61582125 28.4852436,7.6971621 13.7902562,20.0817277 C6.18137771,26.4942991 1.47928994,34.8399517 1.47928994,41.7417569 C1.47928994,61.9729827 11.731969,67.4388226 26.8462706,67.4388226 Z" id="Oval-16-Copy-2" stroke-width="1.47928994" fill="#1CD4E1"></path>
                <path d="M310.909206,67.4388226 C326.023508,67.4388226 340.275954,61.9729827 340.275954,41.7417569 L340.275954,0.61582125 C340.275954,0.61582125 312.548179,7.6971621 297.853192,20.0817277 C290.244314,26.4942991 285.542226,34.8399517 285.542226,41.7417569 C285.542226,61.9729827 295.794905,67.4388226 310.909206,67.4388226 Z" id="Oval-16-Copy-3" stroke-width="1.47928994" fill="#1CD4E1" transform="translate(312.909090, 34.027322) scale(-1, 1) translate(-312.909090, -34.027322) "></path>
            </g>
            <g id="Element-Copy-7" transform="translate(79.881657, 0.000000)" stroke="#0F7A9D">
                <g id="Left-Leg" transform="translate(98.906442, 115.678730) rotate(4.000000) translate(-98.906442, -115.678730) translate(23.462655, 24.614932)" stroke-width="59.1715976" stroke-linecap="round">
                    <path d="M15.79644,11.832994 L135.091134,170.294602" id="Line" transform="translate(75.443787, 91.063798) rotate(-12.000000) translate(-75.443787, -91.063798) "></path>
                </g>
                <g id="Right-Leg" transform="translate(218.625251, 128.224054) rotate(-4.000000) translate(-218.625251, -128.224054) translate(121.731760, 51.227022)">
                    <path d="M43.7360087,130.977809 L193.338204,0.805574136" id="Line-Copy-2" stroke-width="59.1715976" stroke-linecap="round"></path>
                    <ellipse id="Oval-1" stroke-width="1.47928994" fill="#0F7A9D" transform="translate(43.736009, 109.352540) rotate(4.000000) translate(-43.736009, -109.352540) " cx="43.7360087" cy="109.35254" rx="40.6804734" ry="40.7195846"></ellipse>
                </g>
                <path d="M25.3669806,67.4388226 C40.4812822,67.4388226 54.7337278,61.9729827 54.7337278,41.7417569 L54.7337278,0.61582125 C54.7337278,0.61582125 27.0059536,7.6971621 12.3109662,20.0817277 C4.70208777,26.4942991 0,34.8399517 0,41.7417569 C0,61.9729827 10.2526791,67.4388226 25.3669806,67.4388226 Z" id="Oval-16-Copy-2" stroke-width="1.47928994" fill="#0F7A9D"></path>
                <path d="M309.429916,67.4388226 C324.544218,67.4388226 338.796664,61.9729827 338.796664,41.7417569 L338.796664,0.61582125 C338.796664,0.61582125 311.068889,7.6971621 296.373902,20.0817277 C288.765024,26.4942991 284.062936,34.8399517 284.062936,41.7417569 C284.062936,61.9729827 294.315615,67.4388226 309.429916,67.4388226 Z" id="Oval-16-Copy-3" stroke-width="1.47928994" fill="#0F7A9D" transform="translate(311.429800, 34.027322) scale(-1, 1) translate(-311.429800, -34.027322) "></path>
            </g>
        </g>
    </g>
</svg>