<?xml version="1.0" encoding="UTF-8" standalone="no"?>
<svg width="57px" height="56px" viewBox="0 0 57 56" version="1.1" xmlns="http://www.w3.org/2000/svg" xmlns:xlink="http://www.w3.org/1999/xlink" xmlns:sketch="http://www.bohemiancoding.com/sketch/ns">
    <!-- Generator: Sketch 3.3.2 (12043) - http://www.bohemiancoding.com/sketch -->
    <title>icons-sketch</title>
    <desc>Created with Sketch.</desc>
    <defs></defs>
    <g id="Page-1" stroke="none" stroke-width="1" fill="none" fill-rule="evenodd" sketch:type="MSPage">
        <g id="Emblem-Copy-17" sketch:type="MSLayerGroup" transform="translate(3.000000, 3.000000)">
            <g id="Element" transform="translate(25.988166, 38.500000) scale(1, -1) translate(-25.988166, -38.500000) translate(8.988166, 27.000000)" stroke="#FFFFFF" sketch:type="MSShapeGroup">
                <g id="Left-Leg" transform="translate(10.318971, 11.997294) rotate(4.000000) translate(-10.318971, -11.997294) translate(2.318971, 2.497294)" stroke-width="5.91715976" stroke-linecap="round">
                    <path d="M1.579644,1.18567075 L13.5091134,17.0635874" id="Line" transform="translate(7.544379, 9.124629) rotate(-12.000000) translate(-7.544379, -9.124629) "></path>
                </g>
                <g id="Right-Leg" transform="translate(22.192291, 13.110604) rotate(-4.000000) translate(-22.192291, -13.110604) translate(12.192291, 5.110604)">
                    <path d="M4.37360087,13.1240289 L19.3338204,0.0807188513" id="Line-Copy-2" stroke-width="5.91715976" stroke-linecap="round"></path>
                    <ellipse id="Oval-1" stroke-width="0.5" fill="#FFFFFF" transform="translate(4.373601, 10.957168) rotate(4.000000) translate(-4.373601, -10.957168) " cx="4.37360087" cy="10.9571683" rx="4.06804734" ry="4.08011869"></ellipse>
                </g>
                <path d="M2.53669806,6.75739706 C4.04812822,6.75739706 5.47337278,6.2097177 5.47337278,4.18254078 L5.47337278,0.0617055361 C5.47337278,0.0617055361 2.70059536,0.771258728 1.23109662,2.01219717 C0.470208777,2.65473939 0,3.49097713 0,4.18254078 C0,6.2097177 1.02526791,6.75739706 2.53669806,6.75739706 Z" id="Oval-16-Copy-2" stroke-width="0.5" fill="#FFFFFF"></path>
                <path d="M30.9429916,6.75739706 C32.4544218,6.75739706 33.8796664,6.2097177 33.8796664,4.18254078 L33.8796664,0.0617055361 C33.8796664,0.0617055361 31.1068889,0.771258728 29.6373902,2.01219717 C28.8765024,2.65473939 28.4062936,3.49097713 28.4062936,4.18254078 C28.4062936,6.2097177 29.4315615,6.75739706 30.9429916,6.75739706 Z" id="Oval-16-Copy-3" stroke-width="0.5" fill="#FFFFFF" transform="translate(31.142980, 3.409551) scale(-1, 1) translate(-31.142980, -3.409551) "></path>
            </g>
            <g id="Element-Copy-8" transform="translate(11.650888, 24.703264) scale(1, -1) rotate(-90.000000) translate(-11.650888, -24.703264) translate(-5.434911, 14.020772)" stroke="#1CD4E1" sketch:type="MSShapeGroup">
                <g id="Left-Leg" transform="translate(10.038573, 11.591055) rotate(4.000000) translate(-10.038573, -11.591055) translate(2.494195, 2.466426)" stroke-width="5.91715976" stroke-linecap="round">
                    <path d="M1.579644,1.18567075 L13.5091134,17.0635874" id="Line" transform="translate(7.544379, 9.124629) rotate(-12.000000) translate(-7.544379, -9.124629) "></path>
                </g>
                <g id="Right-Leg" transform="translate(22.010454, 12.848102) rotate(-4.000000) translate(-22.010454, -12.848102) translate(12.321105, 5.132968)">
                    <path d="M4.37360087,13.1240289 L19.3338204,0.0807188513" id="Line-Copy-2" stroke-width="5.91715976" stroke-linecap="round"></path>
                    <ellipse id="Oval-1" stroke-width="0.5" fill="#1CD4E1" transform="translate(4.373601, 10.957168) rotate(4.000000) translate(-4.373601, -10.957168) " cx="4.37360087" cy="10.9571683" rx="4.06804734" ry="4.08011869"></ellipse>
                </g>
                <path d="M2.68462706,6.75739706 C4.19605722,6.75739706 5.62130178,6.2097177 5.62130178,4.18254078 L5.62130178,0.0617055361 C5.62130178,0.0617055361 2.84852436,0.771258728 1.37902562,2.01219717 C0.618137771,2.65473939 0.147928994,3.49097713 0.147928994,4.18254078 C0.147928994,6.2097177 1.1731969,6.75739706 2.68462706,6.75739706 Z" id="Oval-16-Copy-2" stroke-width="0.5" fill="#1CD4E1"></path>
                <path d="M31.0909206,6.75739706 C32.6023508,6.75739706 34.0275954,6.2097177 34.0275954,4.18254078 L34.0275954,0.0617055361 C34.0275954,0.0617055361 31.2548179,0.771258728 29.7853192,2.01219717 C29.0244314,2.65473939 28.5542226,3.49097713 28.5542226,4.18254078 C28.5542226,6.2097177 29.5794905,6.75739706 31.0909206,6.75739706 Z" id="Oval-16-Copy-3" stroke-width="0.5" fill="#1CD4E1" transform="translate(31.290909, 3.409551) scale(-1, 1) translate(-31.290909, -3.409551) "></path>
            </g>
            <g id="Element-Copy-9" transform="translate(39.957641, 25.191649) scale(-1, -1) rotate(-90.000000) translate(-39.957641, -25.191649) translate(22.457641, 14.191649)" stroke="#1CD4E1" sketch:type="MSShapeGroup">
                <g id="Left-Leg" transform="translate(10.038573, 11.591055) rotate(4.000000) translate(-10.038573, -11.591055) translate(2.494195, 2.466426)" stroke-width="5.91715976" stroke-linecap="round">
                    <path d="M1.579644,1.18567075 L13.5091134,17.0635874" id="Line" transform="translate(7.544379, 9.124629) rotate(-12.000000) translate(-7.544379, -9.124629) "></path>
                </g>
                <g id="Right-Leg" transform="translate(22.010454, 12.848102) rotate(-4.000000) translate(-22.010454, -12.848102) translate(12.321105, 5.132968)" fill="#1CD4E1">
                    <path d="M4.37360087,13.1240289 L19.3338204,0.0807188513" id="Line-Copy-2" stroke-width="5.91715976" stroke-linecap="round"></path>
                    <ellipse id="Oval-1" stroke-width="0.5" transform="translate(4.373601, 10.957168) rotate(4.000000) translate(-4.373601, -10.957168) " cx="4.37360087" cy="10.9571683" rx="4.06804734" ry="4.08011869"></ellipse>
                </g>
                <path d="M2.68462706,6.75739706 C4.19605722,6.75739706 5.62130178,6.2097177 5.62130178,4.18254078 L5.62130178,0.0617055361 C5.62130178,0.0617055361 2.84852436,0.771258728 1.37902562,2.01219717 C0.618137771,2.65473939 0.147928994,3.49097713 0.147928994,4.18254078 C0.147928994,6.2097177 1.1731969,6.75739706 2.68462706,6.75739706 Z" id="Oval-16-Copy-2" stroke-width="0.5" fill="#1CD4E1"></path>
                <path d="M31.0909206,6.75739706 C32.6023508,6.75739706 34.0275954,6.2097177 34.0275954,4.18254078 L34.0275954,0.0617055361 C34.0275954,0.0617055361 31.2548179,0.771258728 29.7853192,2.01219717 C29.0244314,2.65473939 28.5542226,3.49097713 28.5542226,4.18254078 C28.5542226,6.2097177 29.5794905,6.75739706 31.0909206,6.75739706 Z" id="Oval-16-Copy-3" stroke-width="0.5" fill="#1CD4E1" transform="translate(31.290909, 3.409551) scale(-1, 1) translate(-31.290909, -3.409551) "></path>
            </g>
            <g id="Element-Copy-7" transform="translate(8.988166, 0.000000)" stroke="#FFFFFF" sketch:type="MSShapeGroup">
                <g id="Left-Leg" transform="translate(10.318971, 11.997294) rotate(4.000000) translate(-10.318971, -11.997294) translate(2.318971, 2.497294)" stroke-width="5.91715976" stroke-linecap="round">
                    <path d="M1.579644,1.18567075 L13.5091134,17.0635874" id="Line" transform="translate(7.544379, 9.124629) rotate(-12.000000) translate(-7.544379, -9.124629) "></path>
                </g>
                <g id="Right-Leg" transform="translate(22.192291, 13.110604) rotate(-4.000000) translate(-22.192291, -13.110604) translate(12.192291, 5.110604)">
                    <path d="M4.37360087,13.1240289 L19.3338204,0.0807188513" id="Line-Copy-2" stroke-width="5.91715976" stroke-linecap="round"></path>
                    <ellipse id="Oval-1" stroke-width="0.5" fill="#FFFFFF" transform="translate(4.373601, 10.957168) rotate(4.000000) translate(-4.373601, -10.957168) " cx="4.37360087" cy="10.9571683" rx="4.06804734" ry="4.08011869"></ellipse>
                </g>
                <path d="M2.53669806,6.75739706 C4.04812822,6.75739706 5.47337278,6.2097177 5.47337278,4.18254078 L5.47337278,0.0617055361 C5.47337278,0.0617055361 2.70059536,0.771258728 1.23109662,2.01219717 C0.470208777,2.65473939 0,3.49097713 0,4.18254078 C0,6.2097177 1.02526791,6.75739706 2.53669806,6.75739706 Z" id="Oval-16-Copy-2" stroke-width="0.5" fill="#FFFFFF"></path>
                <path d="M30.9429916,6.75739706 C32.4544218,6.75739706 33.8796664,6.2097177 33.8796664,4.18254078 L33.8796664,0.0617055361 C33.8796664,0.0617055361 31.1068889,0.771258728 29.6373902,2.01219717 C28.8765024,2.65473939 28.4062936,3.49097713 28.4062936,4.18254078 C28.4062936,6.2097177 29.4315615,6.75739706 30.9429916,6.75739706 Z" id="Oval-16-Copy-3" stroke-width="0.5" fill="#FFFFFF" transform="translate(31.142980, 3.409551) scale(-1, 1) translate(-31.142980, -3.409551) "></path>
            </g>
        </g>
    </g>
</svg>