<svg xmlns="http://www.w3.org/2000/svg" xmlns:xlink="http://www.w3.org/1999/xlink" viewBox="2721.332 4018.642 68.717 68.717">
  <defs>
    <style>
      .cls-1 {
        fill: none;
        clip-rule: evenodd;
      }

      .cls-2 {
        clip-path: url(#clip-path);
      }

      .cls-3 {
        fill: #989898;
      }
    </style>
    <clipPath id="clip-path">
      <path id="Path_217" data-name="Path 217" class="cls-1" d="M155.538,3.585h-4.909V8.494h-2.452V3.585h-4.909V1.131h4.909V-3.778h2.452V1.131h4.909Zm-17.7-14.952a7.62,7.62,0,0,1,.96,1.2,7.9,7.9,0,0,1,.8,1.6,7.219,7.219,0,0,1,.286,2.145,6.121,6.121,0,0,1-1.029,3.6,11.559,11.559,0,0,1-1.029,1.207c-.4.367-.827.743-1.28,1.123a5.881,5.881,0,0,0-.719.88,1.905,1.905,0,0,0-.387,1.185,1.523,1.523,0,0,0,.4,1.082,8.488,8.488,0,0,0,.657.715l1.473,1.166a14.591,14.591,0,0,1,2.409,2.39,5.937,5.937,0,0,1,1.016,3.477,6.928,6.928,0,0,1-2.787,5.394q-2.893,2.432-8.343,2.515-4.561-.042-6.812-1.877a5.03,5.03,0,0,1-2.272-4.1,5.734,5.734,0,0,1,.739-2.59,6.254,6.254,0,0,1,2.6-2.51,13.881,13.881,0,0,1,4.432-1.55,35.037,35.037,0,0,1,3.818-.367,8.807,8.807,0,0,1-.837-1.273,2.835,2.835,0,0,1-.427-1.583,2.29,2.29,0,0,1,.163-.926c.094-.26.183-.5.264-.717A12.9,12.9,0,0,1,130.534.9a6.788,6.788,0,0,1-5.287-2.107,6.16,6.16,0,0,1-1.9-4.475,7.535,7.535,0,0,1,2.7-5.6,9.546,9.546,0,0,1,3.848-1.92,19.174,19.174,0,0,1,3.7-.389h8.684l-2.682,1.51h-2.678a6.044,6.044,0,0,1,.921.717ZM104,2.359A34.359,34.359,0,1,0,138.359-32,34.359,34.359,0,0,0,104,2.359Z" transform="translate(-104 32)"/>
    </clipPath>
  </defs>
  <g id="Group_164" data-name="Group 164" class="cls-2" transform="translate(2721.332 4018.642)">
    <path id="Path_216" data-name="Path 216" class="cls-3" d="M99,53.192h90.191V-37H99Z" transform="translate(-109.738 26.263)"/>
  </g>
</svg>
