<svg xmlns="http://www.w3.org/2000/svg" xmlns:xlink="http://www.w3.org/1999/xlink" viewBox="4939.669 4019 68.719 68.719">
  <defs>
    <style>
      .cls-1 {
        fill: none;
        clip-rule: evenodd;
      }

      .cls-2 {
        clip-path: url(#clip-path);
      }

      .cls-3 {
        fill: #e9a820;
      }

      .cls-4 {
        clip-path: url(#clip-path-2);
      }
    </style>
    <clipPath id="clip-path">
      <path id="Path_248" data-name="Path 248" class="cls-1" d="M65.794-15.764l2.311,6.9,7.166-2.4s.059-5.773-2.311-6.9S65.794-15.764,65.794-15.764Z" transform="translate(-65.794 18.165)"/>
    </clipPath>
    <clipPath id="clip-path-2">
      <path id="Path_250" data-name="Path 250" class="cls-1" d="M101.609,6.951,98.135,8.115l1.2,3.595a2.78,2.78,0,1,1-5.272,1.765l-1.2-3.595-7.166,2.4,1.2,3.595a2.78,2.78,0,0,1-5.272,1.765l-1.2-3.595L76.95,15.21a2.843,2.843,0,0,1-.953.144,2.78,2.78,0,0,1-.812-5.416l3.475-1.164-2.311-6.9L72.874,3.04a2.775,2.775,0,0,1-.953.144,2.779,2.779,0,0,1-2.564-1.9,2.776,2.776,0,0,1,1.752-3.518L74.583-3.4l-1.2-3.595a2.781,2.781,0,0,1,1.754-3.52,2.78,2.78,0,0,1,3.518,1.752l1.2,3.6,7.166-2.4-1.2-3.595a2.78,2.78,0,0,1,1.752-3.52,2.781,2.781,0,0,1,3.52,1.754l1.2,3.595,3.475-1.164a2.783,2.783,0,0,1,3.52,1.752,2.781,2.781,0,0,1-1.754,3.52L94.059-4.055l2.311,6.9,3.475-1.164a2.78,2.78,0,0,1,1.765,5.272M86.36-32A34.359,34.359,0,1,0,120.719,2.36,34.358,34.358,0,0,0,86.36-32" transform="translate(-52 32)"/>
    </clipPath>
  </defs>
  <g id="Group_276" data-name="Group 276" transform="translate(4123 3326)">
    <g id="Group_189" data-name="Group 189" class="cls-2" transform="translate(846.29 722.71)">
      <path id="Path_247" data-name="Path 247" class="cls-3" d="M60.794,7.608H91.745V-23.165H60.794Z" transform="translate(-71.531 12.428)"/>
    </g>
    <g id="Group_190" data-name="Group 190" class="cls-4" transform="translate(816.669 693)">
      <path id="Path_249" data-name="Path 249" class="cls-3" d="M47,53.194h90.194V-37H47Z" transform="translate(-57.738 26.262)"/>
    </g>
  </g>
</svg>
