<svg xmlns="http://www.w3.org/2000/svg" xmlns:xlink="http://www.w3.org/1999/xlink" viewBox="5386.342 4019 68.719 68.719">
  <defs>
    <style>
      .cls-1 {
        fill: none;
        clip-rule: evenodd;
      }

      .cls-2 {
        clip-path: url(#clip-path);
      }

      .cls-3 {
        fill: #989898;
      }
    </style>
    <clipPath id="clip-path">
      <path id="Path_228" data-name="Path 228" class="cls-1" d="M298.283,19.537c-7.484.127-10.321-5.332-10.321-9.176V-.866h-3.477V-5.3c5.212-1.877,6.466-6.58,6.76-9.258a.271.271,0,0,1,.247-.258h5.034v8.753H303.4v5.2h-6.9V9.83c.024,1.456.556,3.462,3.307,3.387a8.105,8.105,0,0,0,2.772-.593l1.654,4.9c-.621.911-3.425,1.969-5.951,2.012M294.36-32A34.359,34.359,0,1,0,328.719,2.359,34.358,34.358,0,0,0,294.36-32" transform="translate(-260 32)"/>
    </clipPath>
  </defs>
  <g id="Group_179" data-name="Group 179" class="cls-2" transform="translate(5386.342 4019)">
    <path id="Path_227" data-name="Path 227" class="cls-3" d="M255,53.194h90.194V-37H255Z" transform="translate(-265.737 26.263)"/>
  </g>
</svg>
