<svg xmlns="http://www.w3.org/2000/svg" xmlns:xlink="http://www.w3.org/1999/xlink" viewBox="2609.667 4018.641 68.717 68.717">
  <defs>
    <style>
      .cls-1 {
        fill: none;
        clip-rule: evenodd;
      }

      .cls-2 {
        clip-path: url(#clip-path);
      }

      .cls-3 {
        fill: #989898;
      }
    </style>
    <clipPath id="clip-path">
      <path id="Path_211" data-name="Path 211" class="cls-1" d="M100.021-4.648c.013.3.021.606.021.913,0,9.313-7.091,20.055-20.057,20.055A19.958,19.958,0,0,1,69.18,13.154a14.489,14.489,0,0,0,1.681.1,14.139,14.139,0,0,0,8.755-3.017A7.055,7.055,0,0,1,73.03,5.339a7.112,7.112,0,0,0,1.327.125,7.074,7.074,0,0,0,1.858-.247,7.05,7.05,0,0,1-5.654-6.91v-.09A7.015,7.015,0,0,0,73.754-.9a7.049,7.049,0,0,1-3.137-5.867,7.012,7.012,0,0,1,.956-3.545A20.014,20.014,0,0,0,86.1-2.948a7.07,7.07,0,0,1-.183-1.606,7.05,7.05,0,0,1,7.048-7.05,7.034,7.034,0,0,1,5.145,2.227,14.105,14.105,0,0,0,4.477-1.709,7.084,7.084,0,0,1-3.1,3.9,14.146,14.146,0,0,0,4.048-1.11,14.35,14.35,0,0,1-3.517,3.648M86.359-32A34.359,34.359,0,1,0,120.718,2.359,34.357,34.357,0,0,0,86.359-32" transform="translate(-52.001 32)"/>
    </clipPath>
  </defs>
  <g id="Group_161" data-name="Group 161" class="cls-2" transform="translate(2609.667 4018.641)">
    <path id="Path_210" data-name="Path 210" class="cls-3" d="M47,53.192h90.191V-37H47Z" transform="translate(-57.738 26.263)"/>
  </g>
</svg>
