<svg xmlns="http://www.w3.org/2000/svg" xmlns:xlink="http://www.w3.org/1999/xlink" viewBox="3496.665 4137.844 69.295 68.72">
  <defs>
    <style>
      .cls-1 {
        fill: none;
        clip-rule: evenodd;
      }

      .cls-2 {
        clip-path: url(#clip-path);
      }

      .cls-3 {
        fill: #e05649;
      }

      .cls-4 {
        clip-path: url(#clip-path-2);
      }

      .cls-5 {
        fill: #fffefe;
      }
    </style>
    <clipPath id="clip-path">
      <path id="Path_125" data-name="Path 125" class="cls-1" d="M103.777,49.793a34.5,34.5,0,0,1-34.648-34.36,34.649,34.649,0,0,1,69.295,0A34.5,34.5,0,0,1,103.777,49.793Z" transform="translate(-69.129 18.927)"/>
    </clipPath>
    <clipPath id="clip-path-2">
      <path id="Path_127" data-name="Path 127" class="cls-1" d="M99.5-.21,88.419,5.729l0-9.144v-2.78L99.5-.21Zm13.26-8.052s-.4-2.927-1.629-4.214a5.774,5.774,0,0,0-4.11-1.8c-5.747-.427-14.359-.427-14.359-.427h-.019s-8.617,0-14.358.429a5.761,5.761,0,0,0-4.113,1.8c-1.228,1.287-1.629,4.214-1.629,4.214a66.043,66.043,0,0,0-.412,6.868V1.825A66.109,66.109,0,0,0,72.546,8.7s.4,2.925,1.629,4.212c1.564,1.69,3.616,1.636,4.527,1.812,3.284.325,13.954.428,13.954.428s8.622-.015,14.369-.442a5.763,5.763,0,0,0,4.11-1.8c1.229-1.287,1.629-4.211,1.629-4.211a66,66,0,0,0,.413-6.87V-1.393a65.991,65.991,0,0,0-.413-6.869Z" transform="translate(-72.134 14.7)"/>
    </clipPath>
  </defs>
  <g id="Group_275" data-name="Group 275" transform="translate(3496.665 4137.844)">
    <g id="Group_83" data-name="Group 83" class="cls-2">
      <path id="Path_124" data-name="Path 124" class="cls-3" d="M64.129,91h116.3V-23.927H64.129Z" transform="translate(-87.632 0.823)"/>
    </g>
    <g id="Group_84" data-name="Group 84" class="cls-4" transform="translate(14.127 19.534)">
      <path id="Path_126" data-name="Path 126" class="cls-5" d="M67.134,56.355h88.047V-19.7H67.134Z" transform="translate(-90.637 -3.404)"/>
    </g>
  </g>
</svg>
